# xmcd
# 
# Track frame offsets:
#     150
#     13601
#     28279
#     42879
#     58228
#     74126
#     89082
#     105652
#     120133
#     137924
#     153263
#     166884
#     181114
#     198913
#     217368
#     233066
#     242678
#     265914
#     278409
#     291856
#     304215
#     318342
# 
# Disc length: 4439
# 
# Revision: 1
# Processed by: cddbd v1.5.2PL0 Copyright (c) Steve Scherf et al.
# Submitted via: fre:ac v1.0.31
# 
DISCID=43115516
DTITLE=John Fahey - Your Past Comes back to Haunt You Disc 1
DYEAR=1957
DGENRE=Folk
TTITLE0=Interview
TTITLE1=Franklin Blues
TTITLE2=Smoketown Strut
TTITLE3=Steel Guitar Rag
TTITLE4=Takoma Park Pool Hall Blues
TTITLE5=Buck Dancer's Choice 1
TTITLE6=Medley: Pretty Polly, Shortnin' Bread
TTITLE7=Barbara Namkin Blues
TTITLE8=In Christ there is no East or West
TTITLE9=Stak O'Lee Blues
TTITLE10=The Trancendental Rainbow 1
TTITLE11=John Henry 1
TTITLE12=Over the Hill Blues 1
TTITLE13=St Louis Blues
TTITLE14=On Doing an Evil Deed Blues
TTITLE15=Reinumeration Blues
TTITLE16=The Trancendental Rainbow 2
TTITLE17=Mississippi Boweevil Blues
TTITLE18=Green River Blues
TTITLE19=Over the Hill Blues 2
TTITLE20=Libba's Rag
TTITLE21=Chris's Rag
EXTD=
EXTT0=
EXTT1=
EXTT2=
EXTT3=
EXTT4=
EXTT5=
EXTT6=
EXTT7=
EXTT8=
EXTT9=
EXTT10=
EXTT11=
EXTT12=
EXTT13=
EXTT14=
EXTT15=
EXTT16=
EXTT17=
EXTT18=
EXTT19=
EXTT20=
EXTT21=
PLAYORDER=
